<?xml version="1.0" standalone="no"?>
<!DOCTYPE svg PUBLIC "-//W3C//DTD SVG 20010904//EN"
 "http://www.w3.org/TR/2001/REC-SVG-20010904/DTD/svg10.dtd">
<svg version="1.0" xmlns="http://www.w3.org/2000/svg"
 width="1284.000000pt" height="1712.000000pt" viewBox="0 0 1284.000000 1712.000000"
 preserveAspectRatio="xMidYMid meet">

<g transform="translate(0.000000,1712.000000) scale(0.100000,-0.100000)"
fill="#000000" stroke="none">
<path d="M7195 15941 c-11 -5 -40 -10 -65 -10 -82 -1 -186 -40 -238 -88 -26
-23 -53 -43 -61 -43 -7 0 -11 -6 -8 -14 3 -8 0 -20 -8 -26 -11 -9 -12 -7 -8 8
4 18 2 19 -36 9 -54 -15 -73 1 -41 33 12 12 19 25 15 28 -10 10 -39 -13 -53
-41 -7 -15 -18 -27 -23 -27 -6 0 -6 7 1 20 9 17 2 15 -47 -12 -32 -17 -65 -36
-73 -43 -10 -9 -33 -11 -67 -8 -43 5 -54 2 -59 -11 -5 -13 -10 -14 -20 -5 -10
8 -27 8 -66 -1 -76 -17 -80 -20 -113 -86 -31 -60 -94 -113 -103 -86 -6 20 -28
13 -40 -13 -11 -25 -32 -34 -32 -15 0 6 -7 10 -15 10 -8 0 -15 -7 -15 -15 0
-8 -4 -15 -8 -15 -16 0 -30 23 -25 39 5 12 3 13 -6 5 -7 -6 -14 -33 -16 -59
-3 -26 -11 -53 -19 -59 -7 -6 -22 -33 -31 -59 -10 -26 -22 -50 -26 -53 -5 -3
-9 -16 -9 -29 0 -13 -13 -35 -32 -52 -18 -16 -38 -38 -44 -49 -6 -10 -25 -26
-42 -34 -17 -8 -32 -22 -32 -31 0 -9 -9 -19 -20 -22 -14 -4 -18 -10 -13 -23 6
-16 8 -15 24 5 10 12 21 21 26 20 20 -3 27 2 13 11 -8 5 -12 12 -8 15 3 3 17
-5 31 -19 33 -33 51 -34 43 -2 -3 13 1 36 9 52 7 15 12 31 10 35 -3 4 3 13 13
20 15 13 16 12 4 -3 -11 -13 -11 -18 0 -24 7 -5 16 -9 21 -10 4 -1 10 -2 15
-3 4 -1 2 -5 -4 -9 -7 -4 -20 -23 -31 -42 -24 -43 -79 -71 -143 -74 -37 -1
-51 3 -60 17 -10 17 -12 17 -31 -6 -10 -14 -19 -30 -19 -36 0 -6 -4 -11 -10
-11 -5 0 -18 -10 -30 -22 -13 -14 -20 -17 -20 -8 0 9 -3 10 -9 5 -6 -6 -11
-32 -13 -60 -2 -33 -7 -49 -15 -47 -7 1 -13 -2 -13 -7 0 -5 6 -11 13 -14 9 -3
9 -7 -2 -20 -7 -9 -17 -15 -21 -12 -4 2 -18 -7 -31 -21 -20 -21 -21 -27 -9
-35 10 -5 11 -12 5 -16 -22 -17 -37 -63 -37 -117 -1 -31 -4 -56 -8 -56 -9 0
-21 -71 -21 -122 0 -21 -4 -38 -10 -38 -6 0 -9 9 -6 19 2 10 1 25 -4 32 -6 10
-9 3 -10 -21 -1 -19 0 -39 1 -45 4 -13 11 -180 10 -227 0 -21 6 -67 14 -102 8
-35 17 -101 20 -147 3 -46 8 -131 11 -189 3 -58 8 -152 10 -210 4 -122 20
-262 34 -305 5 -16 12 -47 16 -68 7 -46 25 -39 25 9 0 21 4 33 10 29 6 -3 10
-2 10 4 0 5 -6 14 -14 18 -14 8 -28 63 -17 63 4 0 12 -5 19 -12 9 -9 12 -9 12
0 0 7 3 12 8 12 4 0 7 -55 6 -122 0 -87 2 -114 8 -93 5 17 11 159 14 317 2
158 9 308 15 335 6 26 15 76 20 111 5 34 21 84 35 109 22 43 23 48 9 69 -11
17 -13 36 -9 64 8 50 20 59 26 20 3 -17 1 -30 -4 -30 -9 0 -11 -34 -2 -43 6
-6 64 95 64 112 0 9 42 76 55 89 2 3 1 -13 -2 -33 -5 -29 -3 -36 6 -31 7 5 10
14 7 22 -3 8 -1 14 4 14 6 0 10 6 10 14 0 8 5 16 12 18 8 3 7 11 -5 28 -17 25
-22 61 -11 73 4 4 7 25 8 47 1 44 -16 59 -43 38 -14 -12 -14 -11 -2 5 7 9 19
17 26 17 15 0 25 22 25 55 0 13 5 27 10 30 6 3 10 1 10 -6 0 -7 11 9 24 35 13
26 22 56 19 67 -3 10 -1 19 5 19 5 0 13 11 16 25 4 14 25 42 48 63 23 20 47
43 55 50 23 24 15 -9 -9 -35 -12 -13 -17 -23 -12 -23 6 0 23 14 39 30 37 38
65 41 36 4 -29 -37 -26 -52 5 -23 14 13 33 23 43 21 9 -1 28 8 41 20 13 13 34
28 45 34 11 6 46 26 78 44 41 22 77 34 119 38 40 3 67 11 80 24 17 17 60 23
146 18 21 -1 32 3 32 12 0 10 23 14 88 16 104 4 123 8 115 28 -6 16 5 18 26 5
8 -5 21 -7 29 -3 13 4 12 7 -4 14 -20 9 45 2 81 -9 18 -5 19 -4 5 12 -14 17
-13 18 3 12 10 -4 28 -7 40 -7 20 0 20 0 1 -15 -19 -14 -19 -14 1 -15 11 0 26
9 33 20 13 21 72 29 72 10 0 -5 5 -10 11 -10 5 0 7 5 4 10 -4 6 8 9 29 8 33
-3 52 -18 24 -18 -8 0 -7 -4 3 -10 13 -7 34 -7 59 0 3 1 -4 5 -15 10 -18 8
-17 9 8 9 20 1 30 -5 37 -21 l9 -23 0 23 c1 12 5 22 11 22 5 0 9 -3 9 -7 -3
-20 2 -24 15 -14 10 9 21 9 42 0 16 -7 34 -13 39 -14 6 -1 15 -3 20 -5 6 -1
17 -3 25 -4 8 0 15 -8 15 -16 0 -18 -36 -22 -82 -10 -18 5 -33 5 -33 2 1 -24
24 -28 157 -28 79 1 138 0 133 -2 -9 -3 15 -62 25 -62 3 0 13 5 23 11 15 10
23 7 43 -13 41 -41 114 -78 158 -81 22 -1 41 -5 41 -8 0 -3 27 -6 60 -7 66 -2
120 -24 120 -48 0 -8 5 -12 10 -9 6 4 10 -12 10 -39 0 -25 -4 -46 -10 -46 -17
0 -11 -40 11 -84 12 -22 25 -49 30 -58 5 -10 9 -27 9 -38 0 -11 5 -20 11 -20
7 0 9 -9 3 -27 -4 -16 -6 -47 -5 -70 1 -25 -3 -43 -9 -43 -18 0 -11 -26 20
-66 16 -21 30 -44 30 -49 0 -6 24 -37 53 -70 127 -146 149 -212 141 -416 -8
-189 -5 -303 7 -384 19 -128 -1 -423 -30 -433 -6 -2 -14 -21 -17 -42 -4 -21
-15 -48 -25 -59 -11 -11 -19 -23 -19 -26 0 -12 -94 -200 -106 -213 -8 -7 -17
-25 -20 -38 -4 -14 -17 -30 -31 -35 -13 -5 -26 -16 -30 -26 -8 -21 -40 -53
-53 -53 -10 0 -14 -18 -10 -60 1 -20 -1 -23 -11 -12 -22 20 -29 14 -25 -22 4
-30 2 -33 -15 -29 -15 4 -22 0 -26 -16 -3 -11 -13 -21 -22 -21 -18 0 -81 -111
-81 -142 0 -16 -49 -78 -51 -64 -1 3 -2 10 -3 15 0 5 -5 13 -9 18 -5 4 -7 1
-5 -7 2 -10 -6 -16 -24 -18 -28 -3 -39 -27 -17 -34 7 -2 9 -13 4 -26 -5 -17
-10 -20 -19 -13 -7 6 -15 8 -18 5 -3 -3 -8 6 -12 19 -5 22 -33 44 -43 33 -2
-2 5 -20 17 -40 11 -20 20 -40 20 -44 0 -4 -5 1 -11 11 -14 24 -32 12 -19 -13
7 -14 7 -21 -2 -27 -18 -11 -51 -111 -42 -125 5 -8 0 -9 -16 -5 -13 3 -30 1
-37 -5 -17 -14 -17 -39 0 -32 10 4 13 -3 9 -25 -4 -26 -6 -29 -23 -18 -10 6
-19 15 -19 19 0 13 -28 9 -33 -4 -3 -10 -9 -10 -29 1 -21 11 -30 11 -49 0 -13
-7 -30 -12 -37 -10 -8 1 -20 -3 -28 -10 -11 -9 -14 -8 -14 5 0 11 -9 16 -27
16 -16 1 -39 7 -53 15 -33 19 -40 18 -40 -2 0 -14 2 -15 9 -4 5 8 11 9 15 3 3
-5 -5 -17 -19 -26 -17 -11 -25 -26 -25 -45 0 -16 -6 -31 -14 -34 -10 -4 -15 8
-20 45 -6 44 -9 48 -23 36 -9 -7 -19 -12 -22 -10 -3 1 -8 -14 -11 -35 -5 -36
-6 -37 -18 -16 -16 29 -15 43 3 63 14 16 14 18 1 23 -14 6 -56 -35 -56 -53 0
-16 -49 16 -54 34 -8 31 -36 0 -36 -40 0 -18 -5 -36 -10 -39 -7 -4 -9 3 -6 19
4 22 2 24 -17 17 -12 -5 -28 -6 -34 -4 -7 3 -13 0 -13 -6 0 -6 -4 -11 -10 -11
-5 0 -10 9 -10 21 0 14 -5 19 -14 16 -8 -3 -18 5 -25 19 l-11 25 -30 -21 c-17
-12 -30 -17 -30 -11 0 6 -12 11 -26 11 -14 0 -23 -4 -19 -10 13 -21 -19 -9
-42 16 -16 17 -22 32 -17 46 5 17 3 18 -14 9 -11 -6 -32 -26 -46 -43 l-25 -33
2 30 c1 20 -2 29 -10 28 -7 -2 -13 2 -13 7 0 16 -14 12 -39 -11 -24 -22 -42
-19 -23 4 16 19 4 28 -19 14 -17 -10 -24 -7 -48 21 -19 21 -38 32 -55 32 -28
0 -32 10 -16 40 12 23 -4 37 -25 20 -9 -8 -23 -8 -47 -1 -31 9 -31 10 -10 16
25 8 30 40 6 49 -10 4 -14 12 -10 22 4 9 1 22 -5 30 -13 16 -40 7 -32 -12 3
-8 0 -14 -6 -14 -7 0 -9 13 -5 38 5 36 5 37 -25 39 -17 1 -33 -2 -36 -7 -4 -6
3 -10 14 -10 34 0 32 -16 -4 -30 -27 -11 -32 -16 -23 -27 8 -10 8 -17 0 -25
-9 -9 -12 -8 -12 4 0 9 -9 18 -21 21 -11 3 -19 11 -18 19 3 27 -2 37 -23 44
-20 6 -20 8 -5 19 16 12 16 13 -4 18 -16 4 -19 11 -14 26 3 12 3 21 -2 21 -13
0 -35 58 -28 71 10 16 -16 61 -32 55 -8 -4 -18 5 -24 22 -21 59 -21 58 -28 37
-7 -16 -9 -14 -14 13 -4 21 -12 32 -23 32 -10 0 -26 7 -36 17 -17 15 -18 14
-18 -17 0 -27 -3 -31 -12 -22 -7 7 -11 27 -10 46 1 19 -2 37 -8 41 -5 3 -7 0
-4 -8 7 -19 -16 -34 -26 -17 -5 7 -7 18 -6 24 2 6 1 8 -1 3 -7 -11 -23 3 -23
20 0 25 -34 92 -46 93 -14 0 -34 44 -34 75 0 13 -7 31 -16 39 -8 9 -13 19 -11
24 6 9 -14 37 -31 43 -22 7 -77 185 -96 314 -7 46 3 -136 14 -265 21 -244 35
-350 50 -385 18 -43 20 -58 14 -111 -6 -48 -11 -56 -42 -76 -46 -28 -23 -36
25 -8 44 26 63 20 63 -19 0 -17 6 -50 14 -73 8 -24 17 -59 21 -78 13 -70 45
-162 71 -205 14 -24 23 -49 20 -54 -15 -24 166 -196 256 -242 20 -10 43 -28
52 -40 8 -12 19 -18 25 -15 6 4 22 -7 37 -23 14 -16 49 -39 77 -51 29 -11 61
-25 72 -30 35 -16 80 -33 90 -34 6 -1 11 -7 11 -13 3 -26 4 -28 12 -15 6 9 16
5 38 -16 35 -34 88 -59 82 -40 -3 7 -14 14 -26 16 -12 2 -22 8 -22 13 0 21 29
6 92 -46 36 -30 71 -55 77 -55 7 0 46 -18 87 -40 42 -22 85 -40 96 -40 12 0
36 -11 53 -24 21 -17 36 -21 42 -15 7 7 19 6 35 -2 21 -9 30 -8 52 6 20 14 32
15 55 7 22 -8 31 -7 35 1 3 9 5 9 5 0 1 -14 31 -18 31 -4 0 5 11 16 23 24 23
15 24 14 20 -7 -3 -15 1 -25 11 -29 10 -4 16 -1 16 8 0 8 4 15 9 15 5 0 18 3
28 6 13 4 15 3 4 -4 -10 -7 -10 -11 -1 -17 8 -5 16 -1 22 9 11 20 42 21 59 0
10 -13 10 -17 -2 -25 -11 -7 -11 -9 4 -9 11 0 18 7 16 18 -3 32 1 42 16 42 8
0 15 -4 15 -10 0 -5 5 -10 11 -10 7 0 9 9 5 24 -4 15 0 28 9 36 8 7 13 16 10
20 -3 5 -1 11 5 15 13 8 13 -6 1 -38 -12 -30 10 -45 29 -21 7 8 9 14 4 15 -5
0 1 4 14 9 22 10 31 30 11 30 -5 0 -7 5 -4 10 3 6 11 10 16 10 6 0 7 -4 4 -10
-3 -5 1 -10 9 -10 9 0 16 5 16 10 0 6 6 10 13 10 6 0 29 18 51 40 23 24 51 42
72 46 19 3 34 12 34 20 0 8 10 14 23 14 13 0 32 9 42 20 10 11 24 20 32 20 8
0 11 5 8 10 -3 6 1 10 9 10 9 0 16 5 16 10 0 6 11 8 25 4 15 -4 25 -2 25 5 0
6 -9 11 -20 11 -11 0 -20 5 -20 10 0 6 5 10 10 10 6 0 22 11 35 25 14 13 25
21 25 18 0 -3 18 13 41 35 43 44 54 50 62 30 3 -7 6 -3 6 9 1 13 16 34 36 50
19 15 49 48 67 72 50 70 110 191 105 212 -3 10 0 17 7 16 7 -1 11 22 11 74 -1
63 2 76 15 75 11 -1 16 10 18 39 2 22 8 45 13 51 5 6 7 19 3 28 -9 23 9 20 73
-14 43 -23 68 -30 107 -29 l51 2 -45 6 c-25 4 -64 17 -86 29 -34 17 -43 28
-48 57 -8 40 1 120 17 149 5 11 13 74 18 139 5 66 13 135 20 154 6 18 12 55
14 81 2 26 8 92 14 147 6 55 14 138 17 185 4 47 10 101 14 120 l8 35 1 -32 c1
-40 33 -64 76 -56 17 3 57 7 90 10 33 3 65 9 70 15 7 7 -22 9 -96 4 -107 -6
-129 0 -129 32 0 8 8 26 18 40 10 15 23 45 30 67 15 55 42 217 42 252 0 15 2
66 5 113 3 47 5 99 5 115 -1 32 4 44 56 146 19 37 34 75 34 86 0 10 5 24 11
30 25 25 48 201 53 409 3 114 11 232 17 262 11 45 10 69 -5 150 -24 133 -33
159 -71 201 -18 20 -35 53 -39 73 -8 42 -21 55 -40 39 -24 -20 -189 151 -171
178 7 12 -22 77 -58 131 -52 77 -87 108 -133 119 -29 8 -44 17 -44 27 0 9 -10
24 -22 34 -13 10 -52 54 -88 98 -100 122 -211 177 -339 165 -43 -3 -66 -2 -71
6 -3 7 -45 14 -94 18 -68 5 -95 11 -122 29 -18 13 -43 28 -55 34 -27 15 -188
23 -214 11z m180 -21 c3 -5 15 -10 25 -10 34 0 31 -18 -4 -22 -26 -3 -33 -1
-28 11 4 10 1 13 -11 8 -9 -3 -19 -2 -22 3 -3 4 1 11 7 13 20 8 26 8 33 -3z
m-1111 -274 c-3 -9 -10 -16 -15 -16 -5 0 -4 9 3 20 14 22 21 20 12 -4z m-264
-176 c0 -5 -2 -10 -4 -10 -3 0 -8 5 -11 10 -3 6 -1 10 4 10 6 0 11 -4 11 -10z
m-40 -144 c0 -3 -4 -8 -10 -11 -5 -3 -10 -1 -10 4 0 6 5 11 10 11 6 0 10 -2
10 -4z m-40 -26 c0 -5 -5 -10 -11 -10 -5 0 -7 5 -4 10 3 6 8 10 11 10 2 0 4
-4 4 -10z m887 -336 c-3 -3 -12 -4 -19 -1 -8 3 -5 6 6 6 11 1 17 -2 13 -5z
m-1183 -83 c-5 -5 -24 -11 -43 -15 -27 -5 -31 -4 -22 7 6 8 25 14 42 15 18 0
28 -3 23 -7z m-111 -120 c-8 -22 -24 -42 -34 -44 -20 -5 -18 4 9 35 7 9 11 21
8 27 -3 5 2 12 11 14 10 3 19 5 20 6 1 0 -6 -17 -14 -38z m3112 -91 c3 -5 1
-10 -4 -10 -6 0 -11 5 -11 10 0 6 2 10 4 10 3 0 8 -4 11 -10z m-3175 -20 c0
-5 -4 -10 -10 -10 -5 0 -10 5 -10 10 0 6 5 10 10 10 6 0 10 -4 10 -10z m3228
-23 c2 -12 -1 -15 -12 -11 -19 7 -22 38 -3 32 6 -3 13 -12 15 -21z m-3061
-647 c17 0 13 -22 -5 -28 -7 -2 -12 3 -12 12 0 9 -4 16 -10 16 -5 0 -10 -9
-10 -20 0 -11 7 -20 15 -20 16 0 19 -9 8 -36 -6 -16 -7 -16 -14 2 -5 12 -8 -1
-8 -38 -1 -31 -4 -63 -7 -72 -9 -22 -37 -21 -30 2 7 27 20 135 17 154 -1 9 3
19 9 23 5 3 10 21 11 38 l1 32 10 -32 c6 -18 17 -33 25 -33z m-100 -492 c-3
-8 -6 -5 -6 6 -1 11 2 17 5 13 3 -3 4 -12 1 -19z m3 -78 c0 -5 -5 -10 -11 -10
-5 0 -7 5 -4 10 3 6 8 10 11 10 2 0 4 -4 4 -10z m-26 -90 l6 -35 -15 30 c-16
33 -21 82 -6 55 5 -8 11 -31 15 -50z m23 -12 c-3 -8 -6 -5 -6 6 -1 11 2 17 5
13 3 -3 4 -12 1 -19z m313 -1008 c0 -5 -4 -10 -10 -10 -5 0 -10 5 -10 10 0 6
5 10 10 10 6 0 10 -4 10 -10z m2010 -350 c0 -5 -7 -10 -16 -10 -8 0 -12 5 -9
10 3 6 10 10 16 10 5 0 9 -4 9 -10z m-1623 -47 c-9 -9 -19 -14 -23 -11 -10 10
6 28 24 28 15 0 15 -1 -1 -17z m1603 -5 c0 -18 -2 -20 -9 -8 -6 8 -7 18 -5 22
9 14 14 9 14 -14z m-964 -304 c-10 -26 -23 -14 -18 17 4 26 6 29 14 15 5 -10
7 -24 4 -32z"/>
<path d="M5541 15004 c0 -11 3 -14 6 -6 3 7 2 16 -1 19 -3 4 -6 -2 -5 -13z"/>
<path d="M5806 14287 c3 -10 9 -15 12 -12 3 3 0 11 -7 18 -10 9 -11 8 -5 -6z"/>
<path d="M6083 14166 c-11 -6 -33 -22 -50 -36 -36 -31 -157 -189 -150 -196 9
-9 58 8 64 22 3 9 14 12 29 8 15 -4 24 -2 24 6 0 6 -4 8 -10 5 -5 -3 -10 -1
-10 4 0 6 7 11 15 11 8 0 15 -7 15 -15 0 -23 19 -18 32 9 15 33 28 37 74 21
22 -8 54 -14 72 -15 18 0 31 -4 28 -8 -2 -4 3 -9 12 -10 53 -5 141 -20 149
-25 4 -3 31 -6 58 -8 28 -1 63 -9 79 -17 17 -8 61 -15 100 -16 69 -1 71 0 68
23 -2 18 2 22 14 17 8 -3 22 -6 29 -6 7 0 18 -12 23 -27 l10 -28 1 33 c1 22
-4 32 -14 32 -8 0 -15 9 -15 19 0 11 -6 26 -14 33 -57 55 -91 79 -152 103 -38
15 -74 31 -80 36 -31 25 -364 46 -401 25z"/>
<path d="M7623 14163 c-4 -11 -15 -13 -46 -8 -28 5 -38 4 -33 -4 5 -7 -4 -11
-27 -11 -53 0 -149 -22 -170 -39 -22 -18 -49 -47 -71 -76 -15 -20 -15 -20 -16
4 0 44 -18 9 -23 -46 -3 -29 -8 -57 -12 -62 -3 -6 1 -11 9 -11 9 0 16 8 16 19
0 11 5 23 10 26 6 4 10 -8 10 -28 0 -30 3 -34 20 -30 11 3 20 10 20 15 0 7 4
7 13 0 6 -5 26 -8 42 -6 69 9 279 34 390 47 66 8 128 18 139 22 11 5 21 3 26
-6 5 -8 23 -12 45 -11 48 3 73 -15 48 -34 -17 -12 -16 -13 7 -14 41 -1 70 -11
70 -26 0 -8 -5 -13 -11 -11 -6 1 -14 -4 -16 -10 -3 -8 3 -13 14 -13 30 -1 67
-35 59 -55 -4 -12 -2 -16 7 -12 7 3 19 -4 25 -14 20 -31 30 -22 25 24 -3 23
-18 61 -34 85 -16 23 -29 47 -29 53 0 20 -179 185 -228 211 -35 19 -57 24 -86
20 -26 -3 -34 -7 -25 -13 9 -6 0 -9 -26 -9 -23 0 -46 5 -52 11 -6 6 -27 14
-47 19 -29 6 -39 5 -43 -7z m-336 -225 c-3 -7 -5 -2 -5 12 0 14 2 19 5 13 2
-7 2 -19 0 -25z"/>
<path d="M6068 13993 c7 -3 16 -2 19 1 4 3 -2 6 -13 5 -11 0 -14 -3 -6 -6z"/>
<path d="M6335 13784 c69 -15 113 -30 137 -46 14 -10 29 -18 33 -18 4 0 34
-20 66 -45 68 -52 91 -61 31 -12 -42 33 -57 70 -24 62 9 -3 -8 6 -38 21 -56
26 -140 45 -195 43 -19 -1 -23 -3 -10 -5z"/>
<path d="M7545 13779 c-63 -6 -94 -20 -113 -50 -17 -27 4 -33 28 -9 27 27 106
45 197 45 39 0 70 1 68 3 -9 9 -126 17 -180 11z"/>
<path d="M6140 13750 c0 -13 11 -13 30 0 12 8 11 10 -7 10 -13 0 -23 -4 -23
-10z"/>
<path d="M7845 13715 c36 -20 84 -53 106 -75 41 -41 69 -51 69 -26 0 18 -82
79 -151 111 -82 38 -100 30 -24 -10z"/>
<path d="M6075 13726 c-37 -16 -92 -62 -106 -88 -9 -17 -8 -18 8 -9 10 5 31
22 46 36 15 15 47 38 70 51 45 25 32 32 -18 10z"/>
<path d="M7120 13730 c0 -5 -7 -10 -15 -10 -26 0 -17 -21 14 -31 22 -8 28 -15
25 -34 -2 -19 5 -28 28 -40 39 -19 58 -19 58 0 0 8 -7 15 -15 15 -8 0 -15 7
-15 15 0 8 -4 15 -8 15 -5 0 -9 13 -10 30 0 16 -3 34 -7 40 -8 13 -55 13 -55
0z"/>
<path d="M8175 13730 c-3 -6 1 -13 10 -16 19 -8 30 0 20 15 -8 14 -22 14 -30
1z"/>
<path d="M6695 13710 c2 -14 5 -38 5 -54 0 -22 3 -26 13 -17 10 8 17 7 25 -1
9 -9 12 -8 12 4 0 9 -7 18 -15 22 -8 3 -22 20 -30 38 -12 26 -14 27 -10 8z"/>
<path d="M6255 13704 c-63 -16 -115 -38 -186 -80 -87 -52 -94 -58 -102 -95 -8
-30 17 -72 31 -52 10 16 222 13 222 -2 0 -5 9 0 19 13 11 12 24 22 30 22 6 0
11 5 11 10 0 7 13 8 35 4 27 -5 36 -3 41 11 5 13 9 14 15 4 6 -10 22 -10 81 4
40 10 97 17 126 17 99 0 78 44 -53 110 -52 26 -74 31 -155 35 -52 2 -104 2
-115 -1z m85 -49 c0 -14 -4 -25 -10 -25 -5 0 -10 11 -10 25 0 14 5 25 10 25 6
0 10 -11 10 -25z m-60 -13 c0 -39 -24 -71 -41 -54 -10 9 -10 12 -1 12 7 0 12
7 12 16 0 16 18 54 25 54 3 0 5 -13 5 -28z m231 -3 c40 -20 46 -36 18 -50 -34
-17 -121 -41 -126 -35 -5 5 12 74 24 99 7 13 43 7 84 -14z m-316 -41 c8 -18
22 -43 31 -55 16 -23 16 -23 -17 -23 -42 0 -106 17 -114 30 -12 19 46 78 77
80 4 0 14 -15 23 -32z m132 -20 c-3 -8 -6 -5 -6 6 -1 11 2 17 5 13 3 -3 4 -12
1 -19z m273 12 c13 -8 12 -10 -2 -10 -10 0 -21 0 -25 -1 -4 0 -9 4 -11 10 -5
14 18 14 38 1z"/>
<path d="M7560 13700 c-67 -7 -110 -26 -173 -74 -52 -40 -62 -44 -53 -21 3 10
-1 15 -13 15 -10 0 -21 9 -24 20 -3 14 -14 20 -31 20 -14 0 -26 -4 -26 -10 0
-5 4 -10 9 -10 12 0 41 -29 41 -41 0 -5 -10 -9 -23 -9 -13 0 -26 -3 -30 -6
-10 -11 21 -62 60 -96 20 -18 47 -43 61 -55 41 -38 61 -22 23 19 -11 11 -17
27 -14 36 4 9 2 13 -4 9 -12 -8 -28 9 -37 38 -5 19 -1 21 52 23 31 1 91 -3
132 -9 56 -8 75 -8 78 1 3 7 9 4 17 -7 11 -15 17 -16 34 -6 15 10 20 9 24 -1
3 -7 19 -16 36 -19 46 -10 37 -25 -16 -29 l-48 -3 40 -8 c22 -4 51 -11 65 -15
32 -10 70 7 70 31 0 24 22 17 35 -11 9 -20 16 -22 91 -21 l81 2 -1 41 c-1 35
-7 47 -41 77 -44 40 -175 102 -245 118 -48 10 -84 11 -170 1z m66 -66 c-3 -8
-10 -14 -16 -14 -14 0 -13 33 3 49 10 10 13 9 15 -4 2 -9 1 -23 -2 -31z m57
30 c8 -8 -3 -34 -14 -34 -5 0 -9 9 -9 20 0 19 11 26 23 14z m-157 -12 c14 -9
38 -81 30 -89 -3 -4 -17 -1 -31 5 -14 7 -35 12 -47 12 -12 0 -30 8 -40 17 -18
16 -17 17 19 39 42 25 53 27 69 16z m306 -61 c24 -21 30 -33 22 -41 -12 -12
-114 -26 -114 -15 0 13 43 85 52 85 4 0 22 -13 40 -29z m-512 -7 c0 -8 -4 -12
-10 -9 -5 3 -10 10 -10 16 0 5 5 9 10 9 6 0 10 -7 10 -16z"/>
<path d="M7364 13648 l-19 -23 23 19 c21 18 27 26 19 26 -2 0 -12 -10 -23 -22z"/>
<path d="M6790 13628 c0 -4 4 -8 9 -8 6 0 12 4 15 8 3 5 -1 9 -9 9 -8 0 -15
-4 -15 -9z"/>
<path d="M6669 13530 c-13 -30 -14 -36 -2 -38 21 -5 25 2 21 40 l-4 33 -15
-35z"/>
<path d="M7437 13487 c4 -6 -6 -8 -26 -4 l-32 7 18 -25 c19 -26 33 -32 33 -14
0 5 4 7 10 4 10 -6 60 22 60 34 0 3 -16 6 -35 7 -20 0 -31 -4 -28 -9z"/>
<path d="M6600 13461 c-7 -15 -7 -21 0 -21 12 0 25 28 17 36 -3 3 -10 -4 -17
-15z"/>
<path d="M7515 13470 c3 -5 8 -10 11 -10 2 0 4 5 4 10 0 6 -5 10 -11 10 -5 0
-7 -4 -4 -10z"/>
<path d="M7132 13459 c2 -6 8 -10 13 -10 5 0 11 4 13 10 2 6 -4 11 -13 11 -9
0 -15 -5 -13 -11z"/>
<path d="M7212 13238 c6 -18 28 -21 28 -4 0 9 -7 16 -16 16 -9 0 -14 -5 -12
-12z"/>
<path d="M7262 13220 c-7 -12 -8 -20 -2 -20 5 0 19 -9 31 -21 27 -27 38 -15
12 14 -11 12 -22 28 -24 35 -3 8 -8 5 -17 -8z"/>
<path d="M6723 13024 c-50 -22 -80 -54 -65 -69 4 -4 -1 -5 -11 -3 -22 4 -53
-42 -44 -66 4 -9 18 -16 32 -16 14 0 25 -4 25 -10 0 -5 -4 -10 -10 -10 -5 0
-10 -9 -10 -20 0 -11 -7 -20 -16 -20 -20 0 -79 -44 -129 -97 -22 -23 -64 -53
-92 -68 -29 -14 -67 -39 -85 -55 -18 -17 -36 -30 -40 -30 -16 0 -98 -123 -98
-146 0 -12 -4 -26 -10 -29 -16 -10 -11 -28 6 -21 12 5 15 0 14 -22 -1 -15 -1
-31 0 -37 1 -5 1 -31 0 -56 -2 -55 11 -68 39 -40 13 13 21 16 25 8 4 -11 68
46 77 70 2 5 16 13 31 17 27 6 34 2 61 -36 14 -20 103 -46 114 -34 4 5 2 11
-4 13 -15 5 -18 73 -4 73 5 0 12 -12 14 -27 2 -16 5 -5 6 24 1 40 4 51 15 47
8 -3 20 3 27 14 17 23 56 45 72 39 7 -2 19 2 28 9 30 27 105 34 364 36 84 1
145 -9 145 -23 0 -17 88 -68 141 -81 32 -8 55 -19 57 -28 2 -12 -14 -15 -95
-16 -53 -1 -127 -7 -164 -14 -68 -13 -213 -5 -379 21 -62 9 -135 5 -144 -9 -2
-4 19 -7 47 -7 80 0 212 -16 215 -25 2 -5 14 -4 27 2 14 6 35 7 52 3 40 -11
133 -9 248 6 103 13 115 13 175 8 25 -3 34 0 32 9 -2 9 6 12 20 10 13 -2 21
-7 20 -13 -2 -5 -8 -9 -13 -8 -12 4 -11 -14 1 -22 6 -3 10 -14 10 -24 0 -24
57 -34 85 -15 11 8 28 14 38 14 10 0 21 9 24 20 8 32 87 23 98 -11 7 -20 103
-95 111 -86 3 3 7 34 9 70 4 73 7 90 17 97 7 6 -15 89 -35 130 -8 15 -22 25
-35 26 -30 2 -39 12 -19 20 13 5 9 11 -19 31 -37 24 -58 27 -29 3 8 -7 15 -19
15 -27 0 -21 -33 0 -50 31 -7 14 -21 26 -30 26 -10 0 -23 7 -30 15 -7 8 -28
17 -47 21 -19 4 -45 16 -58 28 -13 11 -32 28 -43 37 -11 9 -22 23 -24 30 -3 8
-16 13 -32 11 -15 -1 -24 2 -21 8 7 11 -16 50 -30 51 -5 0 -20 13 -33 30 l-24
29 24 0 c35 0 65 25 72 62 17 84 18 98 6 98 -7 0 -10 -8 -7 -20 3 -11 0 -26
-7 -33 -7 -7 -18 -23 -25 -35 -8 -16 -16 -20 -24 -14 -29 22 -97 -5 -97 -39 0
-8 -10 -9 -32 -4 -73 15 -108 18 -108 7 0 -6 -7 -9 -16 -5 -17 6 -51 -28 -79
-79 -17 -30 -50 -29 -58 3 -3 13 -14 19 -31 19 -14 0 -26 5 -26 10 0 6 5 10
10 10 6 0 10 11 10 25 0 16 6 25 15 25 24 0 18 15 -20 47 -19 17 -32 33 -28
36 6 7 -26 86 -36 88 -37 7 -64 3 -108 -17z m127 -84 c5 -7 6 -19 4 -25 -3 -7
2 -15 11 -19 9 -3 13 -11 10 -16 -8 -12 -100 -3 -130 13 -11 6 -23 10 -27 9
-5 -1 -8 3 -8 8 0 6 -12 10 -27 10 l-28 0 28 19 c33 22 154 22 167 1z m163
-294 c98 -1 121 -4 131 -18 8 -10 21 -14 38 -11 14 3 29 0 32 -6 4 -6 17 -11
30 -11 12 0 27 -5 33 -11 11 -11 32 5 60 47 17 27 33 23 33 -8 0 -11 -8 -22
-20 -25 -11 -3 -20 -8 -20 -12 0 -13 24 -31 42 -31 10 0 18 -4 18 -10 0 -5 6
-10 13 -10 17 0 137 -92 149 -115 6 -9 7 -20 3 -23 -4 -4 -10 -1 -12 6 -3 6
-12 12 -22 12 -9 0 -25 6 -36 13 -15 12 -23 12 -47 0 -22 -11 -36 -12 -58 -4
-18 6 -32 6 -35 0 -13 -21 -27 -8 -22 20 6 29 6 29 -32 24 -31 -4 -43 -1 -61
17 -21 21 -75 32 -162 31 -16 0 -28 3 -28 7 0 4 -11 8 -25 8 -19 2 -24 -3 -22
-20 3 -30 -47 -35 -77 -7 -12 11 -30 19 -41 16 -11 -2 -54 -9 -95 -15 -84 -13
-147 -28 -172 -41 -9 -5 -32 -11 -50 -14 -18 -3 -48 -10 -67 -15 -39 -11 -51
-6 -51 18 0 30 53 77 115 102 33 13 64 28 70 32 5 4 19 8 31 8 13 0 26 5 30
11 3 6 20 20 38 30 27 18 40 19 101 13 39 -4 123 -8 188 -8z m394 -62 c-3 -3
-12 -4 -19 -1 -8 3 -5 6 6 6 11 1 17 -2 13 -5z m-1097 -278 c0 -3 -4 -8 -10
-11 -5 -3 -10 -1 -10 4 0 6 5 11 10 11 6 0 10 -2 10 -4z"/>
<path d="M7430 12460 c0 -5 5 -10 11 -10 5 0 7 5 4 10 -3 6 -8 10 -11 10 -2 0
-4 -4 -4 -10z"/>
<path d="M7032 13019 c-18 -17 -32 -38 -32 -45 0 -8 -6 -14 -14 -14 -18 0 -29
-27 -13 -33 8 -2 5 -10 -7 -23 -19 -19 -19 -19 1 -22 12 -2 43 7 70 20 l48 23
-38 3 c-43 4 -45 22 -5 36 20 7 38 4 75 -12 52 -22 133 -21 133 3 0 30 -108
95 -158 95 -18 0 -39 -11 -60 -31z"/>
<path d="M5185 13012 c-12 -10 -21 -31 -23 -52 -2 -35 -2 -35 16 -14 9 11 30
29 46 39 26 18 27 20 10 32 -22 16 -25 16 -49 -5z"/>
<path d="M8705 13003 l-40 -28 37 -3 c40 -3 64 -29 70 -77 5 -45 28 -44 28 2
0 28 3 34 10 23 8 -12 10 -12 10 5 0 45 -20 93 -43 99 -31 8 -28 9 -72 -21z"/>
<path d="M8772 12795 c0 -16 2 -22 5 -12 2 9 2 23 0 30 -3 6 -5 -1 -5 -18z"/>
<path d="M5442 12768 c-15 -16 -18 -28 -12 -38 5 -8 7 -33 4 -55 -3 -22 -1
-51 4 -65 9 -23 10 -20 16 25 4 28 11 64 17 80 24 67 10 93 -29 53z"/>
<path d="M8470 12784 c0 -7 22 -87 25 -92 1 -1 10 0 19 4 22 8 20 30 -5 65
-19 26 -39 38 -39 23z"/>
<path d="M5202 12530 c0 -14 2 -19 5 -12 2 6 2 18 0 25 -3 6 -5 1 -5 -13z"/>
<path d="M5348 12432 c-10 -2 -18 -8 -18 -13 0 -11 11 -11 30 1 18 11 11 18
-12 12z"/>
<path d="M8563 12430 c-29 -12 -29 -26 -2 -33 31 -8 70 9 63 28 -7 17 -27 18
-61 5z"/>
<path d="M5440 12420 c0 -5 5 -10 10 -10 6 0 10 5 10 10 0 6 -4 10 -10 10 -5
0 -10 -4 -10 -10z"/>
<path d="M8463 12403 c-19 -7 -16 -20 7 -26 12 -3 30 3 43 14 l22 18 -30 0
c-16 0 -36 -3 -42 -6z"/>
<path d="M6870 12084 c0 -9 -11 -13 -33 -12 -18 1 -43 -5 -56 -12 -34 -18 -83
-70 -78 -83 5 -16 74 -19 99 -6 26 14 36 2 13 -15 -15 -11 -16 -14 -4 -22 8
-4 21 -9 29 -9 8 -1 25 -2 36 -3 14 -1 21 -8 20 -19 -1 -15 9 -17 76 -16 43 1
82 4 87 7 5 3 17 3 26 0 21 -9 35 11 35 52 0 44 11 94 20 94 5 0 11 -14 15
-30 4 -17 22 -47 40 -68 l34 -36 20 44 c11 25 21 52 22 60 0 13 1 13 6 0 9
-21 43 -56 43 -43 0 6 -7 16 -15 23 -8 7 -15 16 -15 21 0 33 -86 71 -102 45
-5 -7 -15 -2 -32 13 -14 14 -30 20 -37 16 -8 -5 -10 -4 -5 4 6 9 -23 11 -118
10 -98 -1 -126 -5 -126 -15z"/>
<path d="M6270 11981 c0 -6 5 -13 10 -16 6 -3 10 1 10 9 0 9 -4 16 -10 16 -5
0 -10 -4 -10 -9z"/>
<path d="M6400 11801 c0 -11 4 -21 9 -21 18 0 21 18 6 30 -13 10 -15 9 -15 -9z"/>
<path d="M6810 11710 c-8 -5 -11 -12 -7 -16 4 -4 13 -2 19 4 15 15 7 24 -12
12z"/>
<path d="M5694 11267 l-81 -92 -129 -12 c-134 -12 -295 -44 -689 -136 -126
-30 -297 -64 -380 -76 -82 -12 -249 -37 -370 -56 -121 -19 -278 -41 -350 -50
-71 -9 -157 -23 -190 -31 -33 -9 -91 -22 -130 -31 -80 -17 -196 -67 -208 -88
-5 -9 -23 -15 -48 -15 -48 0 -68 -10 -132 -63 -60 -50 -105 -136 -122 -233 -9
-54 -20 -82 -44 -111 -151 -186 -183 -233 -293 -438 -115 -213 -139 -258 -215
-389 -41 -71 -101 -168 -133 -215 -120 -179 -209 -359 -245 -498 -31 -118 -43
-231 -49 -465 -4 -123 -10 -186 -20 -210 -68 -155 -176 -496 -201 -635 -19
-102 -46 -334 -40 -344 3 -4 -11 -45 -31 -91 -20 -45 -46 -112 -59 -148 -13
-36 -31 -83 -40 -105 -57 -131 -139 -481 -156 -666 -9 -92 -20 -149 -45 -222
-47 -139 -64 -239 -71 -414 -6 -160 -5 -154 -63 -238 -161 -234 -181 -288
-196 -516 -4 -72 -3 -124 6 -160 6 -30 22 -99 35 -154 23 -99 23 -102 13 -440
-5 -187 -12 -395 -15 -462 -4 -109 -1 -134 21 -216 18 -65 28 -139 36 -252 16
-248 29 -339 66 -459 27 -87 38 -146 49 -273 15 -158 32 -236 84 -375 14 -40
21 -81 21 -135 1 -154 30 -295 87 -419 23 -51 26 -70 27 -181 1 -112 3 -126
21 -139 19 -14 20 -26 20 -170 0 -137 2 -157 18 -165 22 -13 23 -59 2 -59 -13
0 -15 -11 -13 -58 2 -47 6 -57 20 -54 12 2 16 -4 15 -18 -1 -11 -7 -20 -14
-20 -9 0 -13 -17 -13 -55 0 -44 4 -57 17 -62 27 -10 33 -23 33 -75 0 -41 4
-49 31 -69 29 -20 39 -21 143 -16 151 8 239 24 576 101 116 27 251 51 335 60
131 13 142 12 175 -4 20 -10 41 -29 47 -42 21 -42 65 -152 84 -210 10 -32 23
-67 29 -78 11 -20 13 -20 1483 -19 810 1 1448 5 1419 9 -29 4 -56 11 -60 15
-9 10 125 -4 156 -16 13 -5 656 -9 1515 -9 l1492 0 38 55 c42 61 71 71 106 36
18 -18 20 -19 35 -2 9 10 16 26 16 37 0 24 64 156 86 178 25 25 83 19 174 -19
47 -20 125 -51 173 -70 107 -42 261 -120 342 -174 l60 -40 285 0 c277 -1 284
0 261 18 -33 25 -25 55 16 59 29 3 33 7 41 49 9 41 8 48 -11 63 -27 22 -17 54
15 45 21 -7 21 -6 16 71 -6 82 9 151 31 146 27 -6 66 98 41 113 -15 9 0 35 21
35 13 0 19 7 19 21 0 11 22 62 49 112 74 138 102 225 108 337 l6 95 87 90
c119 122 157 208 179 410 l11 90 49 43 c88 76 140 186 156 332 13 122 37 204
91 311 70 140 158 411 184 565 12 75 31 144 47 180 25 54 27 68 25 159 -3 127
9 157 91 220 l60 47 -6 61 c-7 86 -40 166 -101 248 l-53 70 9 52 c6 29 8 95 6
147 -4 79 -11 116 -46 215 -39 115 -41 127 -51 304 -6 102 -11 246 -12 320 0
75 -4 156 -8 181 -43 232 -63 363 -81 525 -52 485 -68 605 -96 750 -9 44 -19
168 -24 275 -6 131 -17 242 -34 340 -15 80 -35 195 -45 255 -11 61 -29 147
-41 193 -11 45 -27 135 -35 200 -28 222 -68 390 -122 516 -48 111 -67 165
-119 350 -45 158 -76 233 -119 291 -33 44 -90 162 -109 224 -19 64 -20 120 -5
208 14 78 -5 165 -54 257 -38 71 -108 146 -138 146 -11 0 -43 19 -70 43 -63
55 -287 171 -464 240 -77 30 -189 79 -250 109 -60 31 -168 79 -240 108 -71 28
-139 56 -150 60 -11 5 -92 38 -180 74 -88 35 -248 105 -355 154 -107 49 -224
102 -260 117 -36 14 -119 49 -184 78 -132 57 -108 34 -254 241 -75 107 -136
224 -143 276 -4 28 -5 14 -3 -40 1 -47 8 -124 15 -172 17 -121 -6 -289 -78
-548 -8 -30 -30 -114 -48 -185 -18 -72 -40 -147 -48 -168 -9 -20 -20 -70 -26
-109 -14 -101 -66 -346 -106 -503 -18 -71 -41 -168 -50 -215 -8 -47 -24 -121
-35 -165 -10 -44 -37 -163 -60 -265 -22 -102 -49 -221 -60 -265 -11 -44 -36
-154 -56 -245 -20 -91 -67 -293 -106 -450 -38 -157 -83 -341 -99 -410 -17 -69
-51 -204 -76 -300 -24 -96 -71 -278 -103 -405 -32 -126 -65 -246 -73 -265 -8
-19 -20 -59 -27 -88 -8 -34 -16 -50 -22 -44 -12 12 -12 176 1 1137 11 829 7
964 -39 1170 -5 22 -16 74 -25 115 -9 41 -30 129 -47 196 l-30 120 27 54 c42
82 92 144 214 265 61 61 111 114 111 119 0 5 -46 56 -102 115 l-103 106 -90 1
c-93 2 -311 36 -346 54 -11 6 -28 9 -37 6 -55 -18 -362 -281 -362 -311 0 -7 7
-15 15 -19 9 -3 25 -21 36 -41 12 -19 27 -35 34 -35 13 0 24 -22 50 -107 11
-32 30 -63 51 -82 45 -41 44 -33 15 -281 -26 -228 -39 -366 -48 -525 -5 -85
-9 -116 -13 -90 -3 22 -5 -70 -5 -205 0 -250 -10 -373 -26 -317 -4 15 -10 62
-14 105 -9 114 -52 577 -75 807 -11 110 -27 277 -35 370 -18 194 -36 353 -64
575 -10 85 -24 202 -31 260 -6 58 -15 130 -20 160 -5 30 -16 100 -25 155 -13
82 -77 370 -115 515 -22 83 -42 258 -36 312 4 32 2 75 -3 96 -6 21 -11 66 -12
100 -1 34 -4 62 -8 61 -3 -1 -42 -42 -87 -92z m1081 -1757 c-3 -5 -11 -10 -16
-10 -6 0 -7 5 -4 10 3 6 11 10 16 10 6 0 7 -4 4 -10z m-45 -69 c0 -19 -22 -23
-38 -7 -15 15 -14 16 11 16 15 0 27 -4 27 -9z m-68 -97 c-8 -41 -18 -35 -14 8
3 23 8 35 12 29 4 -7 5 -23 2 -37z m-4537 -701 c-7 -47 -192 -473 -215 -497
-14 -14 8 62 34 119 35 75 52 120 90 230 45 134 46 135 62 135 8 0 13 3 13 8
-3 18 2 32 11 32 5 0 7 -12 5 -27z m-383 -1132 c6 10 7 7 3 -8 -3 -13 -1 -38
6 -57 10 -28 10 -38 0 -50 -10 -12 -11 -19 -2 -30 8 -10 9 -16 1 -21 -5 -3
-10 -14 -10 -24 0 -9 -9 -36 -20 -59 -11 -22 -20 -46 -20 -52 0 -5 -4 -18 -9
-28 -5 -9 -18 -36 -28 -59 -16 -38 -34 -57 -33 -35 3 66 47 282 61 298 6 7 11
34 11 59 0 43 10 59 22 33 3 -7 3 1 1 17 -3 17 -2 24 1 16 5 -11 8 -11 16 0z
m1594 -898 c3 -21 13 -65 22 -98 19 -75 20 -253 2 -422 -8 -73 -10 -159 -6
-215 18 -258 18 -344 2 -453 -25 -176 -46 -397 -46 -497 0 -74 -6 -113 -30
-193 -37 -121 -91 -357 -120 -518 -11 -65 -30 -142 -42 -170 -24 -61 -51 -153
-84 -292 -14 -55 -49 -174 -78 -265 -115 -349 -216 -727 -216 -804 0 -25 -4
-46 -10 -46 -13 0 -18 41 -29 215 -6 103 -16 171 -30 215 -40 123 -44 182 -25
318 16 108 16 132 5 205 -16 95 -16 91 -6 222 7 89 5 111 -19 206 -14 59 -26
112 -26 118 0 6 -21 56 -46 111 l-47 100 78 163 c154 321 174 409 184 797 7
256 9 278 30 325 12 27 29 87 37 133 8 46 21 96 29 110 8 15 53 70 100 122
158 175 256 345 316 544 16 54 29 100 29 102 0 2 4 4 10 4 5 0 12 -17 16 -37z
m3209 -318 c44 -8 140 -24 213 -35 172 -27 165 -24 159 -72 -3 -22 -8 -42 -11
-46 -4 -3 -91 7 -194 22 -103 15 -200 29 -217 32 -65 9 -127 69 -111 109 6 17
-1 18 161 -10z m-5029 -96 c-9 -18 -16 -38 -16 -45 0 -7 -6 -17 -13 -21 -7 -4
-17 -19 -24 -33 -21 -49 -112 -164 -117 -149 -6 16 -3 52 4 59 3 3 15 25 27
50 23 47 105 140 123 140 5 0 13 12 17 27 3 16 8 22 10 16 3 -7 -3 -27 -11
-44z m8099 -79 c14 -27 25 -65 25 -85 0 -105 72 -455 122 -589 44 -120 109
-251 177 -354 34 -51 61 -100 61 -110 1 -24 43 -182 75 -282 33 -100 36 -158
12 -260 -47 -204 -49 -224 -44 -335 4 -77 14 -139 33 -205 16 -57 27 -122 28
-161 1 -62 -2 -71 -38 -123 -33 -48 -37 -61 -32 -93 4 -21 11 -96 15 -168 5
-71 12 -151 16 -177 10 -64 3 -85 -50 -146 -37 -44 -45 -61 -45 -93 0 -30 -28
-94 -119 -276 -66 -131 -125 -258 -131 -283 -6 -27 -12 -171 -13 -355 l-2
-310 -28 -47 c-15 -26 -57 -111 -92 -190 -36 -79 -69 -144 -75 -146 -6 -2 -10
30 -10 85 -1 48 -3 111 -5 138 -2 28 -6 120 -9 205 -4 85 -9 191 -12 236 -5
79 -5 80 20 92 34 15 33 24 -10 200 -27 112 -38 182 -45 292 -4 80 -13 188
-18 240 -6 52 -11 134 -11 181 0 85 -20 257 -41 347 -6 26 -21 129 -34 228
-21 163 -23 198 -15 350 5 93 12 187 15 210 3 22 6 150 6 285 1 134 5 269 10
299 5 30 14 100 19 155 13 130 59 460 70 505 5 19 14 91 20 160 26 296 29 316
69 448 23 74 41 142 41 151 0 16 8 31 16 31 2 0 15 -22 29 -50z m-8269 -220
c0 -12 -4 -16 -9 -11 -5 5 -6 14 -3 20 10 15 12 14 12 -9z m24 -400 c-1 -12
-3 -11 -11 3 -16 27 -29 20 -23 -11 4 -20 -2 -44 -20 -78 -29 -54 -73 -111
-80 -104 -8 9 6 100 15 94 5 -3 6 1 3 9 -3 8 2 17 11 21 10 3 15 12 11 21 -3
9 0 15 9 15 8 0 18 12 21 26 12 46 64 49 64 4z m5180 -1260 c23 -14 5 -22 -35
-14 -26 5 -33 9 -23 15 17 11 39 11 58 -1z m-5480 -67 c0 -20 20 -16 21 5 1
11 4 8 8 -8 5 -14 5 -29 3 -34 -3 -6 -5 -30 -4 -55 2 -26 -2 -71 -8 -101 -6
-30 -11 -61 -12 -68 -2 -21 -38 19 -38 42 0 17 2 18 10 6 6 -10 8 3 5 40 -17
207 -17 226 0 206 8 -11 15 -26 15 -33z m5536 -17 c41 -40 56 -78 36 -90 -13
-8 -62 61 -56 78 3 8 -3 19 -15 25 -18 10 -20 8 -23 -21 -3 -31 -5 -33 -40
-30 -46 3 -59 -15 -27 -39 19 -15 20 -19 7 -19 -9 0 -23 -3 -32 -6 -13 -5 -15
1 -12 35 2 23 11 50 20 60 9 10 13 21 9 25 -12 11 19 26 56 26 27 0 43 -9 77
-44z m64 2 c28 -47 25 -58 -5 -18 -24 32 -31 50 -20 50 3 0 14 -15 25 -32z
m-232 -7 c-13 -17 -26 -30 -30 -30 -12 -1 3 33 20 47 28 22 34 13 10 -17z
m137 -91 c3 -5 -1 -10 -9 -10 -9 0 -16 5 -16 10 0 6 4 10 9 10 6 0 13 -4 16
-10z m-135 -35 c0 -8 14 -27 31 -44 35 -36 81 -41 101 -12 18 25 58 37 58 17
0 -17 -54 -60 -88 -71 -30 -9 -88 27 -96 60 -4 14 -11 25 -17 25 -6 0 -6 -6 1
-19 13 -26 13 -44 -1 -35 -6 3 -14 2 -18 -4 -10 -17 -29 0 -37 32 -5 21 -4 27
5 22 7 -4 11 0 11 11 0 11 5 24 11 30 14 14 39 6 39 -12z m90 -135 c11 -7 12
-12 4 -20 -13 -13 -67 7 -58 21 7 12 35 11 54 -1z m-5460 -67 c0 -26 -3 -34
-11 -26 -9 9 -3 63 7 63 2 0 4 -17 4 -37z m-43 -310 c-2 -21 -4 -6 -4 32 0 39
2 55 4 38 2 -18 2 -50 0 -70z m5213 -1261 c0 -5 -11 -14 -25 -20 -26 -12 -33
-4 -13 16 14 14 38 16 38 4z m28 -55 c2 -9 -9 -22 -27 -32 -31 -15 -31 -15
-31 9 0 40 51 60 58 23z m57 3 c3 -5 -1 -10 -9 -10 -8 0 -18 5 -21 10 -3 6 1
10 9 10 8 0 18 -4 21 -10z m-184 -43 c-10 -9 -11 -8 -5 6 3 10 9 15 12 12 3
-3 0 -11 -7 -18z m301 -132 c-6 -14 -16 -25 -22 -25 -13 0 -13 26 1 52 17 31
36 7 21 -27z m-213 -20 c0 -5 -6 -1 -14 9 -8 11 -15 24 -15 30 0 5 7 1 15 -10
8 -10 14 -23 14 -29z m162 -26 c6 -3 7 -13 3 -23 -8 -22 -43 -17 -58 7 -9 15
-6 22 14 39 24 19 25 20 29 2 2 -11 7 -22 12 -25z m-5063 -214 c0 -29 0 -29
-8 -5 -8 25 -8 25 -10 -5 -2 -20 -4 -24 -7 -12 -3 11 -2 35 2 55 6 32 9 34 15
17 5 -11 8 -33 8 -50z m98 -585 c-3 -19 -2 -29 4 -25 6 3 7 -1 4 -9 -3 -9 -1
-16 5 -16 6 0 11 -16 11 -35 0 -21 6 -38 14 -41 15 -6 10 -44 -6 -44 -5 0 -7
4 -4 9 3 5 -1 14 -9 21 -8 7 -15 9 -16 4 0 -5 -7 16 -14 46 -15 57 -10 120 7
120 6 0 8 -13 4 -30z m61 -212 c-3 -8 -6 -5 -6 6 -1 11 2 17 5 13 3 -3 4 -12
1 -19z m4575 10 c10 -29 9 -246 -1 -252 -17 -11 -141 -20 -141 -10 -1 14 124
273 131 274 4 0 9 -6 11 -12z m-4571 -441 c-8 -8 -11 -4 -11 14 0 33 14 47 18
19 2 -12 -1 -27 -7 -33z m34 -124 c4 -38 3 -63 -3 -63 -17 0 -30 108 -15 123
10 10 10 7 18 -60z m4751 -170 c29 -22 34 -31 29 -51 -5 -22 -4 -24 9 -13 12
10 20 9 40 -4 26 -18 34 -35 16 -35 -5 0 -10 6 -11 13 0 10 -2 10 -6 0 -6 -15
-59 -17 -68 -3 -3 5 -12 7 -20 3 -18 -6 -20 13 -2 20 7 4 3 8 -10 12 -13 4
-20 11 -17 16 3 5 1 9 -4 9 -13 0 -23 27 -16 45 8 21 20 19 60 -12z m-106 -74
c0 -5 -4 -9 -10 -9 -5 0 -10 7 -10 16 0 8 5 12 10 9 6 -3 10 -10 10 -16z m70
-9 c0 -5 -7 -10 -16 -10 -8 0 -12 5 -9 10 3 6 10 10 16 10 5 0 9 -4 9 -10z"/>
<path d="M8002 11330 c0 -19 2 -27 5 -17 2 9 2 25 0 35 -3 9 -5 1 -5 -18z"/>
<path d="M7675 11170 c4 -6 11 -8 16 -5 14 9 11 15 -7 15 -8 0 -12 -5 -9 -10z"/>
<path d="M5856 11050 c4 -14 13 -36 21 -50 l14 -25 -7 25 c-4 14 -13 36 -21
50 l-14 25 7 -25z"/>
<path d="M7933 11033 c-3 -10 -8 -22 -10 -28 -3 -5 3 -1 11 9 16 20 21 36 11
36 -3 0 -8 -8 -12 -17z"/>
<path d="M7310 10971 c0 -6 5 -13 10 -16 6 -3 10 1 10 9 0 9 -4 16 -10 16 -5
0 -10 -4 -10 -9z"/>
<path d="M7168 10963 c7 -3 16 -2 19 1 4 3 -2 6 -13 5 -11 0 -14 -3 -6 -6z"/>
<path d="M5900 10945 c1 -12 50 -69 55 -64 1 2 -10 20 -26 39 -16 19 -29 30
-29 25z"/>
<path d="M6257 10458 c37 -54 69 -95 71 -93 2 2 -5 17 -17 33 -12 17 -21 34
-21 39 0 4 -23 33 -51 63 -49 54 -49 54 18 -42z"/>
<path d="M6340 10345 c0 -6 11 -27 25 -47 13 -20 43 -73 67 -118 26 -50 68
-109 108 -152 60 -64 68 -69 100 -66 l35 4 -35 11 c-19 6 -28 12 -20 12 10 1
5 8 -12 19 -32 21 -81 90 -73 103 3 5 -1 6 -9 3 -11 -4 -16 0 -16 15 0 12 -4
21 -10 21 -5 0 -9 3 -8 8 0 4 -2 15 -6 24 -8 18 -26 15 -26 -3 0 -6 4 -7 10
-4 6 4 7 -1 3 -11 -5 -15 -7 -15 -15 0 -5 10 -5 23 2 35 15 29 12 39 -7 16
-15 -20 -15 -20 -10 3 3 12 1 20 -4 16 -5 -3 -9 -1 -9 4 0 6 -12 20 -26 33
-14 13 -34 38 -45 54 -10 17 -19 25 -19 20z m190 -270 c14 -19 14 -19 -2 -6
-10 7 -18 18 -18 24 0 6 1 8 3 6 1 -2 9 -13 17 -24z"/>
<path d="M6790 9985 c0 -8 9 -15 20 -15 11 0 20 7 20 15 0 8 -9 15 -20 15 -11
0 -20 -7 -20 -15z"/>
<path d="M9164 106 c-3 -8 -18 -16 -34 -19 -16 -4 -31 -15 -35 -26 -7 -23 -65
-48 -65 -27 0 6 5 17 12 24 6 6 9 14 6 18 -4 3 -26 -13 -50 -35 l-43 -41 160
4 c221 7 217 6 204 22 -6 8 -17 14 -23 14 -16 0 -48 39 -41 50 7 11 -35 30
-66 30 -11 0 -22 -6 -25 -14z m28 -72 c-18 -25 -29 -29 -51 -15 -11 7 -8 14
15 34 21 18 33 22 41 15 10 -8 9 -15 -5 -34z"/>
</g>
</svg>
